<svg data-name="Layer 1" xmlns="http://www.w3.org/2000/svg" viewBox="0 0 280 300"><path d="M113.13 230.6A26.88 26.88 0 00140 203.73v-26.86h-26.87a26.87 26.87 0 000 53.73z" fill="#48ba7f"/><path d="M86.27 150a26.87 26.87 0 0126.86-26.87H140v53.74h-26.87A26.87 26.87 0 0186.27 150z" fill="#8162aa"/><path d="M86.27 96.27a26.87 26.87 0 0126.86-26.87H140v53.73h-26.87a26.87 26.87 0 01-26.86-26.86z" fill="#f05023"/><path d="M140 69.4h26.87a26.87 26.87 0 010 53.73H140z" fill="#f37264"/><path d="M193.73 150a26.87 26.87 0 11-26.86-26.87A26.87 26.87 0 01193.73 150z" fill="#47b8e9"/></svg>